<mxfile host="Electron" agent="Mozilla/5.0 (Macintosh; Intel Mac OS X 10_15_7) AppleWebKit/537.36 (KHTML, like Gecko) draw.io/27.0.9 Chrome/134.0.6998.205 Electron/35.4.0 Safari/537.36" version="27.0.9">
  <diagram name="Page-1" id="0CR545sd9tw7l-F0aAkH">
    <mxGraphModel dx="1234" dy="912" grid="1" gridSize="10" guides="1" tooltips="1" connect="1" arrows="1" fold="1" page="1" pageScale="1" pageWidth="1169" pageHeight="827" math="0" shadow="0">
      <root>
        <mxCell id="0" />
        <mxCell id="1" parent="0" />
        <mxCell id="2Hv7gMxYqGNa7_hQ2Ef7-1" value="&lt;font style=&quot;font-size: 18px;&quot;&gt;ros:jazzy&lt;br&gt;docker image&lt;/font&gt;" style="rounded=1;whiteSpace=wrap;html=1;" vertex="1" parent="1">
          <mxGeometry x="80" y="120" width="160" height="80" as="geometry" />
        </mxCell>
        <mxCell id="2Hv7gMxYqGNa7_hQ2Ef7-3" value="&lt;font style=&quot;font-size: 18px;&quot;&gt;ros:jazzy&lt;br&gt;docker image&lt;/font&gt;" style="rounded=1;whiteSpace=wrap;html=1;" vertex="1" parent="1">
          <mxGeometry x="920" y="120" width="160" height="80" as="geometry" />
        </mxCell>
        <mxCell id="2Hv7gMxYqGNa7_hQ2Ef7-4" value="&lt;span style=&quot;font-size: 18px;&quot;&gt;Core Linux tools&lt;br&gt;C++ tools&lt;br&gt;Python tools&lt;/span&gt;" style="rounded=1;whiteSpace=wrap;html=1;" vertex="1" parent="1">
          <mxGeometry x="320" y="120" width="160" height="80" as="geometry" />
        </mxCell>
        <mxCell id="2Hv7gMxYqGNa7_hQ2Ef7-6" value="&lt;span style=&quot;font-size: 18px;&quot;&gt;Core Linux tools&lt;br&gt;C++ tools&lt;br&gt;Python tools&lt;/span&gt;" style="rounded=1;whiteSpace=wrap;html=1;" vertex="1" parent="1">
          <mxGeometry x="560" y="120" width="160" height="80" as="geometry" />
        </mxCell>
      </root>
    </mxGraphModel>
  </diagram>
</mxfile>
